<?xml version="1.0" encoding="UTF-8" standalone="no"?><!DOCTYPE svg PUBLIC "-//W3C//DTD SVG 1.1//EN" "http://www.w3.org/Graphics/SVG/1.1/DTD/svg11.dtd"><svg width="100%" height="100%" viewBox="0 0 417 417" version="1.1" xmlns="http://www.w3.org/2000/svg" xmlns:xlink="http://www.w3.org/1999/xlink" xml:space="preserve" xmlns:serif="http://www.serif.com/" style="fill-rule:evenodd;clip-rule:evenodd;stroke-linejoin:round;stroke-miterlimit:2;"><g><path d="M151.204,252.281l0,-44.042l-31.619,31.76c3.087,2.175 6.304,4.147 9.639,5.916c3.015,1.587 5.666,2.834 8.486,3.787c2.82,0.954 5.093,1.567 7.359,1.985c2.266,0.418 4.299,0.608 6.187,0.627m161.655,-3.669c0.293,0.241 0.599,0.457 0.925,0.653c0.8,0.507 1.638,0.95 2.507,1.325c1.331,0.579 2.723,1.004 4.149,1.267c1.928,0.392 3.895,0.575 5.862,0.568c1.953,0 3.959,-0.196 6.219,-0.568c2.52,-0.452 4.998,-1.11 7.412,-1.965c2.952,-1.051 5.826,-2.314 8.596,-3.781c3.387,-1.789 6.643,-3.787 9.789,-5.994l-23.999,-23.507l-79.519,-80.042l-34.882,34.973l-47.085,-48.678l-118.14,117.11c3.126,2.204 6.389,4.206 9.769,5.994c3.061,1.606 5.927,2.834 8.577,3.787c2.406,0.856 4.879,1.514 7.392,1.965c2.053,0.37 4.134,0.56 6.219,0.569c1.967,0.006 3.934,-0.183 5.862,-0.569c1.422,-0.28 2.812,-0.704 4.149,-1.266c0.871,-0.355 1.71,-0.786 2.507,-1.287l0.944,-0.679l53.359,-53.499l19.043,-18.335l52.793,52.931l18.476,19.014c0.299,0.242 0.615,0.462 0.944,0.66c0.797,0.507 1.636,0.944 2.508,1.306c1.341,0.555 2.735,0.979 4.148,1.267c1.661,0.339 3.621,0.568 5.881,0.568c1.954,-0 3.96,-0.196 6.22,-0.568c2.522,-0.442 5.001,-1.1 7.411,-1.966c2.953,-1.05 5.826,-2.314 8.597,-3.78c3.386,-1.79 6.643,-3.788 9.788,-5.995l-42.385,-41.595l7.815,-7.836l36.668,36.764l21.381,21.248m-0.456,-221.748l104.188,180.963l-104.131,180.833l-208.448,0l-104.188,-180.956l104.188,-180.963l208.391,0.123Z" style="fill:#0d597f;fill-rule:nonzero;"/></g></svg>