<?xml version="1.0" encoding="UTF-8" standalone="no"?><!DOCTYPE svg PUBLIC "-//W3C//DTD SVG 1.1//EN" "http://www.w3.org/Graphics/SVG/1.1/DTD/svg11.dtd"><svg width="100%" height="100%" viewBox="0 0 350 350" version="1.1" xmlns="http://www.w3.org/2000/svg" xmlns:xlink="http://www.w3.org/1999/xlink" xml:space="preserve" xmlns:serif="http://www.serif.com/" style="fill-rule:evenodd;clip-rule:evenodd;"><g id="Layer-1" serif:id="Layer 1"><path id="path2383" d="M161.821,335.679c0,-0 -8.224,16.465 -14.388,1.687c-6.164,-14.778 -4.955,-49.642 -4.955,-49.642c1.518,-130.378 72.282,-38.911 59.389,-20.274l-40.046,68.229Z" style="fill:none;stroke:#000;stroke-width:4.17px;"/><path id="path3157" d="M162.511,334.879c0,0 -9.095,18.446 -16.801,1.447c-7.705,-17 -7.431,-56.59 -7.431,-56.59c-2.493,-148.147 83.407,-41.861 68.912,-21.1l-44.68,76.243Z" style="fill:none;stroke:#000;stroke-width:4.17px;"/><path id="path3159" d="M163.463,333.725c0,-0 -10.334,21.152 -19.815,1.301c-9.48,-19.85 -10.036,-65.676 -10.036,-65.676c-6.237,-171.557 97.598,-46.607 80.937,-22.894l-51.086,87.269Z" style="fill:none;stroke:#000;stroke-width:4.17px;"/><path id="path3161" d="M164.718,332.192c0,-0 -11.975,24.716 -23.732,1.143c-11.758,-23.572 -13.325,-77.569 -13.325,-77.569c-10.852,-202.232 116.104,-52.988 96.594,-25.38l-59.537,101.806Z" style="fill:none;stroke:#000;stroke-width:4.17px;"/><path id="path3163" d="M165.969,330.743c-0,0 -13.544,28.313 -28.192,0.656c-14.649,-27.657 -18.037,-90.295 -18.037,-90.295c-18.616,-234.736 136.582,-58.146 114.158,-26.694l-67.929,116.333Z" style="fill:none;stroke:#000;stroke-width:4.17px;"/><path id="path3165" d="M167.749,328.485c-0,-0 -15.938,33.317 -33.176,0.771c-17.239,-32.546 -21.227,-106.257 -21.227,-106.257c-21.91,-276.231 160.727,-68.422 134.339,-31.411l-79.936,136.897Z" style="fill:none;stroke:#000;stroke-width:4.17px;"/><path id="path3167" d="M169.403,326.403c-0,-0 -18.164,38.178 -38.589,0.511c-20.424,-37.667 -25.9,-122.578 -25.9,-122.578c-28.625,-318.282 186.214,-76.953 155.935,-34.64l-91.446,156.707Z" style="fill:none;stroke:#000;stroke-width:4.17px;"/><path id="path3169" d="M170.929,324.486c0,0 -20.214,42.669 -43.627,0.247c-23.413,-42.423 -30.325,-137.71 -30.325,-137.71c-35.066,-357.243 209.896,-84.734 176.018,-37.531l-102.066,174.994Z" style="fill:none;stroke:#000;stroke-width:4.17px;"/></g></svg>