<?xml version="1.0" encoding="UTF-8"?>
<svg width="115.46" height="100" fill="#0d597f" version="1.1" xmlns="http://www.w3.org/2000/svg">
 <path d="m41.951 62.293v-12.169l-8.7593 8.7755c0.85518 0.60079 1.7464 1.1457 2.6702 1.6346 0.83533 0.43841 1.5696 0.78301 2.3508 1.0464 0.78121 0.26341 1.4109 0.433 2.0387 0.54847 0.62785 0.11547 1.1908 0.16779 1.714 0.1732m44.783-1.0139c0.08119 0.06675 0.16598 0.12629 0.25619 0.18042a4.9976 4.9976 0 0 0 0.69461 0.36625 5.2862 5.2862 0 0 0 1.1493 0.35001c0.53404 0.10825 1.0789 0.15877 1.6238 0.15696 0.54125 0 1.0969-0.05413 1.723-0.15696a13.062 13.062 0 0 0 2.0532-0.54306 17.97 17.97 0 0 0 2.3815-1.0446c0.93817-0.49434 1.8403-1.0464 2.7117-1.6562l-6.6484-6.495-22.029-22.116-9.6632 9.6632-13.044-13.45-32.728 32.358a24.934 24.934 0 0 0 2.7063 1.6562c0.84796 0.44383 1.6418 0.78301 2.3761 1.0464a12.954 12.954 0 0 0 2.0477 0.54306 9.9771 9.9771 0 0 0 1.723 0.15696c0.54486 0.0018 1.0897-0.05052 1.6238-0.15696a5.9357 5.9357 0 0 0 1.1493-0.35001 4.4924 4.4924 0 0 0 0.69461-0.35542l0.2616-0.18763 14.782-14.782 5.2754-5.0661 14.625 14.625 5.1184 5.2538a2.3274 2.3274 0 0 0 0.2616 0.18222 4.5465 4.5465 0 0 0 0.69461 0.36084c0.37166 0.15336 0.75775 0.27063 1.1493 0.35001 0.46006 0.09382 1.0031 0.15696 1.6292 0.15696 0.54125 0 1.0969-0.05412 1.723-0.15696a12.431 12.431 0 0 0 2.0532-0.54306 17.952 17.952 0 0 0 2.3815-1.0446c0.93817-0.49434 1.8403-1.0464 2.7117-1.6562l-11.742-11.493 2.165-2.165 10.158 10.158 5.9231 5.8708m-0.12629-61.27 28.863 50.001-28.847 49.965h-57.746l-28.863-49.999 28.863-50.001z" stroke-width="1.8042"/>
</svg>
